<?xml version="1.0" encoding="UTF-8" standalone="no"?>
<svg
   xmlns:dc="http://purl.org/dc/elements/1.1/"
   xmlns:cc="http://creativecommons.org/ns#"
   xmlns:rdf="http://www.w3.org/1999/02/22-rdf-syntax-ns#"
   xmlns:svg="http://www.w3.org/2000/svg"
   xmlns="http://www.w3.org/2000/svg"
   xmlns:sodipodi="http://sodipodi.sourceforge.net/DTD/sodipodi-0.dtd"
   xmlns:inkscape="http://www.inkscape.org/namespaces/inkscape"
   enable-background="new 0 0 512 512"
   height="512px"
   id="Layer_1"
   version="1.1"
   viewBox="0 0 512 512"
   width="512px"
   xml:space="preserve"
   inkscape:version="0.91 r13725"
   sodipodi:docname="splash.svg"><metadata
     id="metadata11"><rdf:RDF><cc:Work
         rdf:about=""><dc:format>image/svg+xml</dc:format><dc:type
           rdf:resource="http://purl.org/dc/dcmitype/StillImage" /></cc:Work></rdf:RDF></metadata><defs
     id="defs9" /><sodipodi:namedview
     pagecolor="#ffffff"
     bordercolor="#666666"
     borderopacity="1"
     objecttolerance="10"
     gridtolerance="10"
     guidetolerance="10"
     inkscape:pageopacity="0"
     inkscape:pageshadow="2"
     inkscape:window-width="1316"
     inkscape:window-height="795"
     id="namedview7"
     showgrid="false"
     inkscape:zoom="0.4609375"
     inkscape:cx="232.13559"
     inkscape:cy="342.77966"
     inkscape:window-x="67"
     inkscape:window-y="34"
     inkscape:window-maximized="0"
     inkscape:current-layer="Layer_1" /><rect
     style="opacity:1;fill:#ffffff;fill-opacity:1;fill-rule:nonzero;stroke:none;stroke-width:2.58200002;stroke-miterlimit:4;stroke-dasharray:none;stroke-dashoffset:0;stroke-opacity:0"
     id="rect4139"
     width="679.05084"
     height="637.83051"
     x="-34.711864"
     y="-28.20339"
     ry="44.369301" /><g
     id="g3"><path
       d="M 663.86441,488.76449 605.28814,25.706 C 603.50405,11.602396 500.503,-119.32203 486.591,-119.32203 c -64.72023,21.275761 -653.4159,-90.22611 -655.81134,-11.17536 l 56.40678,727.73746 c 1.07594,13.88136 228.43615,452.79383 266.51456,198.96332 22.79179,-151.92996 860.854,249.50191 586.72051,-117.15254 -8.33052,-11.14209 -76.5571,-176.36236 -76.5571,-190.28636 z M 294.552,209.575 421.568,168.15 l 23.899,73.488 -127.026,41.123 78.332,107.96 -62.295,45.38 -78.332,-107.981 -78.321,107.981 -62.607,-45.38 78.332,-107.96 -126.715,-41.122 23.889,-73.488 126.714,41.425 0,-133.365 77.114,0 z"
       id="path5"
       inkscape:connector-curvature="0"
       style="clip-rule:evenodd;fill:#040404;fill-rule:evenodd"
       sodipodi:nodetypes="csccsssccccccccccccccccc" /></g></svg>